<svg xmlns="http://www.w3.org/2000/svg" xmlns:xlink="http://www.w3.org/1999/xlink" xmlns:lucid="lucid" width="1760" height="1360"><g transform="translate(0 0)" lucid:page-tab-id="0_0"><path d="M0 0h1760v1360H0z" fill="#fff"/><path d="M453.15 76a8 8 0 0 1 8-8h836.75a8 8 0 0 1 8 8v25.16a8 8 0 0 1-8 8H461.15a8 8 0 0 1-8-8z" stroke="#000" stroke-opacity="0" stroke-width="2" fill="#fff" fill-opacity="0"/><use xlink:href="#a" transform="matrix(1,0,0,1,457.1465527853429,71.99999999994924) translate(334.94271604938274 25.782777777777778)"/><use xlink:href="#b" transform="matrix(1,0,0,1,457.1465527853429,71.99999999994924) translate(461.464938271605 25.782777777777778)"/><path d="M628.64 107.8h505.86M628.66 107.8h-1.02M1134.47 107.8h1.03" stroke="#a9afb8" stroke-width="2" fill="none"/><path d="M453.15 117.16a8 8 0 0 1 8-8h837.7a8 8 0 0 1 8 8V120a8 8 0 0 1-8 8h-837.7a8 8 0 0 1-8-8z" stroke="#000" stroke-opacity="0" stroke-width="2" fill="#fff" fill-opacity="0"/><use xlink:href="#c" transform="matrix(1,0,0,1,457.1465527853434,113.15522395684805) translate(312.6712654320988 14.917037037037037)"/><use xlink:href="#d" transform="matrix(1,0,0,1,457.1465527853434,113.15522395684805) translate(389.87507201646093 14.917037037037037)"/><use xlink:href="#e" transform="matrix(1,0,0,1,457.1465527853434,113.15522395684805) translate(445.1116975308642 14.917037037037037)"/><use xlink:href="#f" transform="matrix(1,0,0,1,457.1465527853434,113.15522395684805) translate(457.561183127572 14.917037037037037)"/><use xlink:href="#g" transform="matrix(1,0,0,1,457.1465527853434,113.15522395684805) translate(488.9610802469136 14.917037037037037)"/><use xlink:href="#h" transform="matrix(1,0,0,1,457.1465527853434,113.15522395684805) translate(505.95696502057615 14.917037037037037)"/><path d="M680 445a5 5 0 0 1 5-5h270a5 5 0 0 1 5 5v158a5 5 0 0 1-5 5H685a5 5 0 0 1-5-5z" fill="#b8f5ed"/><path d="M680 480v-35a5 5 0 0 1 5-5h270a5 5 0 0 1 5 5v35" fill="#93c4be"/><path d="M680 445a5 5 0 0 1 5-5h270a5 5 0 0 1 5 5v158a5 5 0 0 1-5 5H685a5 5 0 0 1-5-5zM680 480h280M820 480v128" stroke="#333" fill="none"/><use xlink:href="#i" transform="matrix(1,0,0,1,690,440) translate(0 23.6)"/><use xlink:href="#j" transform="matrix(1,0,0,1,685,482.5) translate(0 17.1)"/><use xlink:href="#k" transform="matrix(1,0,0,1,825,482.5) translate(0 17.1)"/><use xlink:href="#l" transform="matrix(1,0,0,1,685,514.5) translate(0 17.1)"/><use xlink:href="#m" transform="matrix(1,0,0,1,825,514.5) translate(0 17.1)"/><use xlink:href="#n" transform="matrix(1,0,0,1,685,546.5) translate(0 17.1)"/><use xlink:href="#m" transform="matrix(1,0,0,1,825,546.5) translate(0 17.1)"/><use xlink:href="#o" transform="matrix(1,0,0,1,685,578.5) translate(0 17.1)"/><use xlink:href="#p" transform="matrix(1,0,0,1,825,578.5) translate(0 17.1)"/><path d="M680 685a5 5 0 0 1 5-5h270a5 5 0 0 1 5 5v62a5 5 0 0 1-5 5H685a5 5 0 0 1-5-5z" fill="#b8f5ed"/><path d="M680 720v-35a5 5 0 0 1 5-5h270a5 5 0 0 1 5 5v35" fill="#93c4be"/><path d="M680 685a5 5 0 0 1 5-5h270a5 5 0 0 1 5 5v62a5 5 0 0 1-5 5H685a5 5 0 0 1-5-5zM680 720h280M814.76 720v32" stroke="#333" fill="none"/><use xlink:href="#q" transform="matrix(1,0,0,1,690,680) translate(0 23.6)"/><use xlink:href="#r" transform="matrix(1,0,0,1,685,722.5) translate(0 17.1)"/><use xlink:href="#s" transform="matrix(1,0,0,1,819.7586161140284,722.5) translate(0 17.1)"/><path d="M200 205a5 5 0 0 1 5-5h270a5 5 0 0 1 5 5v94a5 5 0 0 1-5 5H205a5 5 0 0 1-5-5z" fill="#fff"/><path d="M200 240v-35a5 5 0 0 1 5-5h270a5 5 0 0 1 5 5v35" fill="#ccc"/><path d="M200 205a5 5 0 0 1 5-5h270a5 5 0 0 1 5 5v94a5 5 0 0 1-5 5H205a5 5 0 0 1-5-5zM200 240h280M338.28 240v64" stroke="#333" fill="none"/><use xlink:href="#t" transform="matrix(1,0,0,1,210,200) translate(0 23.6)"/><use xlink:href="#u" transform="matrix(1,0,0,1,205,242.5) translate(0 17.1)"/><use xlink:href="#k" transform="matrix(1,0,0,1,343.27983457586146,242.5) translate(0 17.1)"/><use xlink:href="#n" transform="matrix(1,0,0,1,205,274.5) translate(0 17.1)"/><use xlink:href="#m" transform="matrix(1,0,0,1,343.27983457586146,274.5) translate(0 17.1)"/><path d="M980.46 496h8a12 12 0 0 1 12 12v124a12 12 0 0 1-12 12H651.5a12 12 0 0 0-12 12v32a12 12 0 0 0 12 12h8.6" stroke="#3a414a" fill="none"/><path d="M980.46 506v-20M960.46 496h20" stroke="#3a414a" fill="#fff"/><path d="M679.3 710l-20-10 20-10" stroke="#3a414a" fill="#fff" fill-opacity="0"/><path d="M679.3 700h-20" stroke="#3a414a" fill="#fff"/><path d="M1100 205a5 5 0 0 1 5-5h270a5 5 0 0 1 5 5v126a5 5 0 0 1-5 5h-270a5 5 0 0 1-5-5z" fill="#fff"/><path d="M1100 240v-35a5 5 0 0 1 5-5h270a5 5 0 0 1 5 5v35" fill="#ccc"/><path d="M1100 205a5 5 0 0 1 5-5h270a5 5 0 0 1 5 5v126a5 5 0 0 1-5 5h-270a5 5 0 0 1-5-5zM1100 240h280M1234.76 240v96" stroke="#333" fill="none"/><use xlink:href="#v" transform="matrix(1,0,0,1,1110,200) translate(0 23.6)"/><use xlink:href="#w" transform="matrix(1,0,0,1,1105,242.5) translate(0 17.1)"/><use xlink:href="#p" transform="matrix(1,0,0,1,1239.7586161140284,242.5) translate(0 17.1)"/><use xlink:href="#x" transform="matrix(1,0,0,1,1105,274.5) translate(0 17.1)"/><use xlink:href="#y" transform="matrix(1,0,0,1,1239.7586161140284,274.5) translate(0 17.1)"/><use xlink:href="#z" transform="matrix(1,0,0,1,1105,306.5) translate(0 17.1)"/><use xlink:href="#A" transform="matrix(1,0,0,1,1239.7586161140284,306.5) translate(0 17.1)"/><path d="M1100 445a5 5 0 0 1 5-5h270a5 5 0 0 1 5 5v62a5 5 0 0 1-5 5h-270a5 5 0 0 1-5-5z" fill="#fff"/><path d="M1100 480v-35a5 5 0 0 1 5-5h270a5 5 0 0 1 5 5v35" fill="#ccc"/><path d="M1100 445a5 5 0 0 1 5-5h270a5 5 0 0 1 5 5v62a5 5 0 0 1-5 5h-270a5 5 0 0 1-5-5zM1100 480h280M1238.28 480v32" stroke="#333" fill="none"/><use xlink:href="#B" transform="matrix(1,0,0,1,1110,440) translate(0 23.6)"/><use xlink:href="#C" transform="matrix(1,0,0,1,1105,482.5) translate(0 17.1)"/><use xlink:href="#D" transform="matrix(1,0,0,1,1243.2798345758615,482.5) translate(0 17.1)"/><path d="M980.5 592h37.5a12 12 0 0 0 12-12V471.94a12 12 0 0 1 12-12h38.1" stroke="#3a414a" fill="none"/><path d="M980.5 602v-20M960.5 592h20" stroke="#3a414a" fill="#fff"/><path d="M1099.3 469.94l-20-10 20-10" stroke="#3a414a" fill="#fff" fill-opacity="0"/><path d="M1099.3 459.94h-20" stroke="#3a414a" fill="#fff"/><path d="M1400.46 256h8a12 12 0 0 1 12 12v119.53a12 12 0 0 1-12 12H1252a12 12 0 0 0-12 12v8.6" stroke="#3a414a" fill="none"/><path d="M1400.46 266v-20M1380.46 256h20" stroke="#3a414a" fill="#fff"/><path d="M1230 439.3l10-20 10 20" stroke="#3a414a" fill="#fff" fill-opacity="0"/><path d="M1240 439.3v-20" stroke="#3a414a" fill="#fff"/><path d="M820 419.53V268a12 12 0 0 0-12-12H499.88" stroke="#3a414a" fill="none"/><path d="M830 419.53h-20M820 439.53v-20" stroke="#3a414a" fill="#fff"/><path d="M480.7 246l20 10-20 10" stroke="#3a414a" fill="#fff" fill-opacity="0"/><path d="M480.7 256h20" stroke="#3a414a" fill="#fff"/><path d="M1100 565a5 5 0 0 1 5-5h270a5 5 0 0 1 5 5v190a5 5 0 0 1-5 5h-270a5 5 0 0 1-5-5z" fill="#fff"/><path d="M1100 600v-35a5 5 0 0 1 5-5h270a5 5 0 0 1 5 5v35" fill="#ccc"/><path d="M1100 565a5 5 0 0 1 5-5h270a5 5 0 0 1 5 5v190a5 5 0 0 1-5 5h-270a5 5 0 0 1-5-5zM1100 600h280M1238.28 600v160" stroke="#333" fill="none"/><use xlink:href="#E" transform="matrix(1,0,0,1,1110,560) translate(0 23.6)"/><use xlink:href="#u" transform="matrix(1,0,0,1,1105,602.5) translate(0 17.1)"/><use xlink:href="#k" transform="matrix(1,0,0,1,1243.2798345758615,602.5) translate(0 17.1)"/><use xlink:href="#F" transform="matrix(1,0,0,1,1105,634.5) translate(0 17.1)"/><use xlink:href="#k" transform="matrix(1,0,0,1,1243.2798345758615,634.5) translate(0 17.1)"/><use xlink:href="#E" transform="matrix(1,0,0,1,1105,666.5) translate(0 17.1)"/><use xlink:href="#G" transform="matrix(1,0,0,1,1105,698.5) translate(0 17.1)"/><use xlink:href="#k" transform="matrix(1,0,0,1,1243.2798345758615,698.5) translate(0 17.1)"/><use xlink:href="#n" transform="matrix(1,0,0,1,1105,730.5) translate(0 17.1)"/><use xlink:href="#m" transform="matrix(1,0,0,1,1243.2798345758615,730.5) translate(0 17.1)"/><path d="M1400.47 648h8a12 12 0 0 0 12-12V171.53a12 12 0 0 0-12-12H352a12 12 0 0 0-12 12v8.6" stroke="#3a414a" fill="none"/><path d="M1400.47 658v-20M1380.47 648h20" stroke="#3a414a" fill="#fff"/><path d="M330 199.3l10-20 10 20" stroke="#3a414a" fill="#fff" fill-opacity="0"/><path d="M340 199.3v-20" stroke="#3a414a" fill="#fff"/><path d="M1400.46 616h8a12 12 0 0 1 12 12v160a12 12 0 0 1-12 12H651.5a12 12 0 0 1-12-12V472a12 12 0 0 1 12-12h8.6" stroke="#3a414a" fill="none"/><path d="M1400.46 626v-20M1380.46 616h20" stroke="#3a414a" fill="#fff"/><path d="M679.28 470l-20-10 20-10" stroke="#3a414a" fill="#fff" fill-opacity="0"/><path d="M679.28 460h-20" stroke="#3a414a" fill="#fff"/><path d="M200 445a5 5 0 0 1 5-5h270a5 5 0 0 1 5 5v190a5 5 0 0 1-5 5H205a5 5 0 0 1-5-5z" fill="#fff"/><path d="M200 480v-35a5 5 0 0 1 5-5h270a5 5 0 0 1 5 5v35" fill="#ccc"/><path d="M200 445a5 5 0 0 1 5-5h270a5 5 0 0 1 5 5v190a5 5 0 0 1-5 5H205a5 5 0 0 1-5-5zM200 480h280M338.28 480v160" stroke="#333" fill="none"/><use xlink:href="#H" transform="matrix(1,0,0,1,210,440) translate(0 23.6)"/><use xlink:href="#C" transform="matrix(1,0,0,1,205,482.5) translate(0 17.1)"/><use xlink:href="#D" transform="matrix(1,0,0,1,343.27983457586146,482.5) translate(0 17.1)"/><use xlink:href="#r" transform="matrix(1,0,0,1,205,514.5) translate(0 17.1)"/><use xlink:href="#D" transform="matrix(1,0,0,1,343.27983457586146,514.5) translate(0 17.1)"/><use xlink:href="#n" transform="matrix(1,0,0,1,205,546.5) translate(0 17.1)"/><use xlink:href="#m" transform="matrix(1,0,0,1,343.27983457586146,546.5) translate(0 17.1)"/><use xlink:href="#u" transform="matrix(1,0,0,1,205,578.5) translate(0 17.1)"/><use xlink:href="#k" transform="matrix(1,0,0,1,343.27983457586146,578.5) translate(0 17.1)"/><use xlink:href="#F" transform="matrix(1,0,0,1,205,610.5) translate(0 17.1)"/><use xlink:href="#k" transform="matrix(1,0,0,1,343.27983457586146,610.5) translate(0 17.1)"/><path d="M500.5 624.3h8a12 12 0 0 0 12-12V231.9a12 12 0 0 0-12-12h-8.64" stroke="#3a414a" fill="none"/><path d="M500.5 634.3v-20M480.5 624.3h20" stroke="#3a414a" fill="#fff"/><path d="M480.67 209.9l20 10-20 10" stroke="#3a414a" fill="#fff" fill-opacity="0"/><path d="M480.67 219.9h20" stroke="#3a414a" fill="#fff"/><path d="M500.5 592.18h8a12 12 0 0 0 12-12V411.53a12 12 0 0 1 12-12H808a12 12 0 0 1 12 12v8.6" stroke="#3a414a" fill="none"/><path d="M500.5 602.18v-20M480.5 592.18h20" stroke="#3a414a" fill="#fff"/><path d="M810 439.3l10-20 10 20" stroke="#3a414a" fill="#fff" fill-opacity="0"/><path d="M820 439.3v-20" stroke="#3a414a" fill="#fff"/><path d="M500.47 256H568a12 12 0 0 1 12 12v180a12 12 0 0 0 12 12h68.1" stroke="#3a414a" fill="none"/><path d="M500.47 266v-20M480.47 256h20" stroke="#3a414a" fill="#fff"/><path d="M679.28 470l-20-10 20-10" stroke="#3a414a" fill="#fff" fill-opacity="0"/><path d="M679.28 460h-20" stroke="#3a414a" fill="#fff"/><path d="M1079.56 320.16H1042a12 12 0 0 0-12 12V688a12 12 0 0 1-12 12h-38.13" stroke="#3a414a" fill="none"/><path d="M1079.56 310.16v20M1099.56 320.16h-20" stroke="#3a414a" fill="#fff"/><path d="M960.68 690l20 10-20 10" stroke="#3a414a" fill="#fff" fill-opacity="0"/><path d="M960.68 700h20" stroke="#3a414a" fill="#fff"/><defs><path fill="#a9afb8" d="M210 0H11v-37l134-170H24v-41h178v36L68-41h142V0" id="I"/><path fill="#a9afb8" d="M85 4C-2 5 27-109 22-190h50c7 57-23 150 33 157 60-5 35-97 40-157h50l1 190h-47c-2-12 1-28-3-38-12 25-28 42-61 42" id="J"/><path fill="#a9afb8" d="M135-150c-39-12-60 13-60 57V0H25l-1-190h47c2 13-1 29 3 40 6-28 27-53 61-41v41" id="K"/><path fill="#a9afb8" d="M25-224v-37h50v37H25zM25 0v-190h50V0H25" id="L"/><path fill="#a9afb8" d="M169-182c-1-43-94-46-97-3 18 66 151 10 154 114 3 95-165 93-204 36-6-8-10-19-12-30l50-8c3 46 112 56 116 5-17-69-150-10-154-114-4-87 153-88 188-35 5 8 8 18 10 28" id="M"/><path fill="#a9afb8" d="M115-3C79 11 28 4 28-45v-112H4v-33h27l15-45h31v45h36v33H77v99c-1 23 16 31 38 25v30" id="N"/><path fill="#a9afb8" d="M133-34C117-15 103 5 69 4 32 3 11-16 11-54c-1-60 55-63 116-61 1-26-3-47-28-47-18 1-26 9-28 27l-52-2c7-38 36-58 82-57s74 22 75 68l1 82c-1 14 12 18 25 15v27c-30 8-71 5-69-32zm-48 3c29 0 43-24 42-57-32 0-66-3-65 30 0 17 8 27 23 27" id="O"/><path fill="#a9afb8" d="M190-63c-7 42-38 67-86 67-59 0-84-38-90-98-12-110 154-137 174-36l-49 2c-2-19-15-32-35-32-30 0-35 28-38 64-6 74 65 87 74 30" id="P"/><path fill="#a9afb8" d="M147 0L96-86 75-71V0H25v-261h50v150l67-79h53l-66 74L201 0h-54" id="Q"/><g id="a"><use transform="matrix(0.0728395061728395,0,0,0.0728395061728395,0,0)" xlink:href="#I"/><use transform="matrix(0.0728395061728395,0,0,0.0728395061728395,15.95185185185185,0)" xlink:href="#J"/><use transform="matrix(0.0728395061728395,0,0,0.0728395061728395,31.9037037037037,0)" xlink:href="#K"/><use transform="matrix(0.0728395061728395,0,0,0.0728395061728395,42.10123456790124,0)" xlink:href="#L"/><use transform="matrix(0.0728395061728395,0,0,0.0728395061728395,49.38518518518518,0)" xlink:href="#M"/><use transform="matrix(0.0728395061728395,0,0,0.0728395061728395,66.86666666666666,0)" xlink:href="#N"/><use transform="matrix(0.0728395061728395,0,0,0.0728395061728395,75.53456790123457,0)" xlink:href="#O"/><use transform="matrix(0.0728395061728395,0,0,0.0728395061728395,90.10246913580247,0)" xlink:href="#P"/><use transform="matrix(0.0728395061728395,0,0,0.0728395061728395,104.67037037037036,0)" xlink:href="#Q"/></g><path fill="#a9afb8" d="M24 0v-248h195v40H76v63h132v40H76v65h150V0H24" id="R"/><path fill="#a9afb8" d="M240-174c0 40-23 61-54 70L253 0h-59l-57-94H76V0H24v-248c93 4 217-23 216 74zM76-134c48-2 112 12 112-38 0-48-66-32-112-35v73" id="S"/><path fill="#a9afb8" d="M24-248c120-7 223 5 221 122C244-46 201 0 124 0H24v-248zM76-40c74 7 117-18 117-86 0-67-45-88-117-82v168" id="T"/><g id="b"><use transform="matrix(0.0728395061728395,0,0,0.0728395061728395,0,0)" xlink:href="#R"/><use transform="matrix(0.0728395061728395,0,0,0.0728395061728395,17.48148148148148,0)" xlink:href="#S"/><use transform="matrix(0.0728395061728395,0,0,0.0728395061728395,36.34691358024691,0)" xlink:href="#T"/></g><path fill="#a9afb8" d="M30 0v-248h187v28H63v79h144v27H63v87h162V0H30" id="U"/><path fill="#a9afb8" d="M210-169c-67 3-38 105-44 169h-31v-121c0-29-5-50-35-48C34-165 62-65 56 0H25l-1-190h30c1 10-1 24 2 32 10-44 99-50 107 0 11-21 27-35 58-36 85-2 47 119 55 194h-31v-121c0-29-5-49-35-48" id="V"/><path fill="#a9afb8" d="M141-36C126-15 110 5 73 4 37 3 15-17 15-53c-1-64 63-63 125-63 3-35-9-54-41-54-24 1-41 7-42 31l-33-3c5-37 33-52 76-52 45 0 72 20 72 64v82c-1 20 7 32 28 27v20c-31 9-61-2-59-35zM48-53c0 20 12 33 32 33 41-3 63-29 60-74-43 2-92-5-92 41" id="W"/><path fill="#a9afb8" d="M117-194c89-4 53 116 60 194h-32v-121c0-31-8-49-39-48C34-167 62-67 57 0H25l-1-190h30c1 10-1 24 2 32 11-22 29-35 61-36" id="X"/><path fill="#a9afb8" d="M84 4C-5 8 30-112 23-190h32v120c0 31 7 50 39 49 72-2 45-101 50-169h31l1 190h-30c-1-10 1-25-2-33-11 22-28 36-60 37" id="Y"/><path fill="#a9afb8" d="M100-194c63 0 86 42 84 106H49c0 40 14 67 53 68 26 1 43-12 49-29l28 8c-11 28-37 45-77 45C44 4 14-33 15-96c1-61 26-98 85-98zm52 81c6-60-76-77-97-28-3 7-6 17-6 28h103" id="Z"/><path fill="#a9afb8" d="M24 0v-261h32V0H24" id="aa"/><g id="c"><use transform="matrix(0.04248971193415638,0,0,0.04248971193415638,0,0)" xlink:href="#U"/><use transform="matrix(0.04248971193415638,0,0,0.04248971193415638,10.19753086419753,0)" xlink:href="#V"/><use transform="matrix(0.04248971193415638,0,0,0.04248971193415638,22.901954732510287,0)" xlink:href="#V"/><use transform="matrix(0.04248971193415638,0,0,0.04248971193415638,35.60637860082304,0)" xlink:href="#W"/><use transform="matrix(0.04248971193415638,0,0,0.04248971193415638,44.10432098765432,0)" xlink:href="#X"/><use transform="matrix(0.04248971193415638,0,0,0.04248971193415638,52.602263374485595,0)" xlink:href="#Y"/><use transform="matrix(0.04248971193415638,0,0,0.04248971193415638,61.10020576131687,0)" xlink:href="#Z"/><use transform="matrix(0.04248971193415638,0,0,0.04248971193415638,69.59814814814814,0)" xlink:href="#aa"/></g><path fill="#a9afb8" d="M194 0L95-120 63-95V0H30v-248h33v124l119-124h40L117-140 236 0h-42" id="ab"/><path fill="#a9afb8" d="M59-47c-2 24 18 29 38 22v24C64 9 27 4 27-40v-127H5v-23h24l9-43h21v43h35v23H59v120" id="ac"/><path fill="#a9afb8" d="M96-169c-40 0-48 33-48 73s9 75 48 75c24 0 41-14 43-38l32 2c-6 37-31 61-74 61-59 0-76-41-82-99-10-93 101-131 147-64 4 7 5 14 7 22l-32 3c-4-21-16-35-41-35" id="ad"/><path fill="#a9afb8" d="M106-169C34-169 62-67 57 0H25v-261h32l-1 103c12-21 28-36 61-36 89 0 53 116 60 194h-32v-121c2-32-8-49-39-48" id="ae"/><path fill="#a9afb8" d="M179-190L93 31C79 59 56 82 12 73V49c39 6 53-20 64-50L1-190h34L92-34l54-156h33" id="af"/><g id="d"><use transform="matrix(0.04248971193415638,0,0,0.04248971193415638,0,0)" xlink:href="#ab"/><use transform="matrix(0.04248971193415638,0,0,0.04248971193415638,10.19753086419753,0)" xlink:href="#W"/><use transform="matrix(0.04248971193415638,0,0,0.04248971193415638,18.695473251028805,0)" xlink:href="#ac"/><use transform="matrix(0.04248971193415638,0,0,0.04248971193415638,22.944444444444443,0)" xlink:href="#ad"/><use transform="matrix(0.04248971193415638,0,0,0.04248971193415638,30.59259259259259,0)" xlink:href="#ae"/><use transform="matrix(0.04248971193415638,0,0,0.04248971193415638,39.090534979423865,0)" xlink:href="#af"/></g><path fill="#a9afb8" d="M32 76v-337h29V76H32" id="ag"/><use transform="matrix(0.04248971193415638,0,0,0.04248971193415638,0,0)" xlink:href="#ag" id="e"/><path fill="#a9afb8" d="M153-248C145-148 188 4 80 4 36 3 13-21 6-62l32-5c4 25 16 42 43 43 27 0 39-20 39-49v-147H72v-28h81" id="ah"/><g id="f"><use transform="matrix(0.04248971193415638,0,0,0.04248971193415638,0,0)" xlink:href="#ah"/><use transform="matrix(0.04248971193415638,0,0,0.04248971193415638,7.648148148148148,0)" xlink:href="#Y"/><use transform="matrix(0.04248971193415638,0,0,0.04248971193415638,16.14609053497942,0)" xlink:href="#aa"/><use transform="matrix(0.04248971193415638,0,0,0.04248971193415638,19.502777777777776,0)" xlink:href="#af"/></g><path fill="#a9afb8" d="M54-142c48-35 137-8 131 61C196 18 31 33 14-55l32-4c7 23 22 37 52 37 35-1 51-22 54-58 4-55-73-65-99-34H22l8-134h141v27H59" id="ai"/><path fill="#a9afb8" d="M68-38c1 34 0 65-14 84H32c9-13 17-26 17-46H33v-38h35" id="aj"/><g id="g"><use transform="matrix(0.04248971193415638,0,0,0.04248971193415638,0,0)" xlink:href="#ai"/><use transform="matrix(0.04248971193415638,0,0,0.04248971193415638,8.497942386831275,0)" xlink:href="#aj"/></g><path fill="#a9afb8" d="M101-251c82-7 93 87 43 132L82-64C71-53 59-42 53-27h129V0H18c2-99 128-94 128-182 0-28-16-43-45-43s-46 15-49 41l-32-3c6-41 34-60 81-64" id="ak"/><path fill="#a9afb8" d="M101-251c68 0 85 55 85 127S166 4 100 4C33 4 14-52 14-124c0-73 17-127 87-127zm-1 229c47 0 54-49 54-102s-4-102-53-102c-51 0-55 48-55 102 0 53 5 102 54 102" id="al"/><g id="h"><use transform="matrix(0.04248971193415638,0,0,0.04248971193415638,0,0)" xlink:href="#ak"/><use transform="matrix(0.04248971193415638,0,0,0.04248971193415638,8.497942386831275,0)" xlink:href="#al"/><use transform="matrix(0.04248971193415638,0,0,0.04248971193415638,16.99588477366255,0)" xlink:href="#ak"/><use transform="matrix(0.04248971193415638,0,0,0.04248971193415638,25.493827160493822,0)" xlink:href="#ak"/></g><path fill="#333" d="M23-63C-1-167 59-251 163-251c68 0 111 34 111 101 0 87-44 137-119 151 2 31 28 37 61 31l-8 34c-54 13-105-9-105-64-40-7-72-29-80-65zm197-70c4-46-15-77-59-77-65 0-88 46-91 108-2 41 22 65 60 65 60 0 84-40 90-96" id="am"/><path fill="#333" d="M69 3c-96 0-34-126-28-193h49L65-57c6 42 62 18 71-6 14-38 17-86 28-127h50L178 0h-47c0-11 4-26 3-33-14 20-30 37-65 36" id="an"/><path fill="#333" d="M114-194c63-2 87 48 72 110H63c-3 28 1 55 31 54 21-1 32-13 37-29l44 13C160-14 137 4 91 4 41 4 11-22 11-73c0-71 33-119 103-121zm30 77c14-47-50-61-67-22-3 6-6 13-8 22h75" id="ao"/><path fill="#333" d="M144-137c-1-29-70-35-71-2 16 41 103 10 103 80C176 9 79 16 32-9 18-17 9-31 4-48l44-6c3 32 80 36 82 1-15-42-103-11-103-82 0-77 157-79 161-8" id="ap"/><path fill="#333" d="M72-63c-8 23 5 39 32 30L98-1C54 14 12-6 23-64l18-93H15l7-33h28l24-45h31l-8 45h35l-6 33H90" id="aq"/><path fill="#333" d="M50-224l7-37h49l-7 37H50zM6 0l37-190h49L55 0H6" id="ar"/><path fill="#333" d="M124-194c51 0 84 22 84 74C207-44 167 4 94 4 43 4 11-23 11-74c0-74 41-120 113-120zM99-30c46 0 58-42 58-86 0-27-11-44-37-44-44 0-55 40-57 84-1 27 10 45 36 46" id="as"/><path fill="#333" d="M151-194c95 0 34 128 28 194h-49l25-134c0-29-45-25-59-9C67-111 69-48 56 0H6l36-190h47l-4 32c15-20 33-36 66-36" id="at"/><g id="i"><use transform="matrix(0.05,0,0,0.05,0,0)" xlink:href="#am"/><use transform="matrix(0.05,0,0,0.05,14,0)" xlink:href="#an"/><use transform="matrix(0.05,0,0,0.05,24.950000000000003,0)" xlink:href="#ao"/><use transform="matrix(0.05,0,0,0.05,34.95,0)" xlink:href="#ap"/><use transform="matrix(0.05,0,0,0.05,44.95,0)" xlink:href="#aq"/><use transform="matrix(0.05,0,0,0.05,50.900000000000006,0)" xlink:href="#ar"/><use transform="matrix(0.05,0,0,0.05,55.900000000000006,0)" xlink:href="#as"/><use transform="matrix(0.05,0,0,0.05,66.85000000000001,0)" xlink:href="#at"/></g><path fill="#333" d="M62-99C39-31 123 0 170-40s38-139 58-208h34C234-144 253 4 115 4 49 4 18-43 31-112l26-136h34" id="au"/><path fill="#333" d="M55-144c13 50 104 24 104 88C159 21 15 23 1-39l26-10c6 40 102 42 102-4-13-50-104-23-104-87 0-71 143-71 148-8l-29 4c-5-35-85-37-89 0" id="av"/><path fill="#333" d="M111-194c62-3 86 47 72 106H45c-7 38 6 69 45 68 27-1 43-14 53-32l24 11C152-15 129 4 87 4 38 3 12-23 12-71c0-70 32-119 99-123zm44 81c14-66-71-72-95-28-4 8-8 17-11 28h106" id="aw"/><path fill="#333" d="M66-151c12-25 30-51 66-40l-6 26C45-176 58-65 38 0H6l36-190h30" id="ax"/><g id="j"><use transform="matrix(0.05,0,0,0.05,0,0)" xlink:href="#au"/><use transform="matrix(0.05,0,0,0.05,12.950000000000001,0)" xlink:href="#av"/><use transform="matrix(0.05,0,0,0.05,21.950000000000003,0)" xlink:href="#aw"/><use transform="matrix(0.05,0,0,0.05,31.950000000000003,0)" xlink:href="#ax"/></g><path fill="#333" d="M87-220l-18 92h140l-5 28H64L45 0H11l48-248h178l-5 28H87" id="ay"/><path fill="#333" d="M180 0L97-118 63-96 45 0H11l48-248h34L69-126c44-43 94-81 141-122h43L121-137 219 0h-39" id="az"/><g id="k"><use transform="matrix(0.05,0,0,0.05,0,0)" xlink:href="#ay"/><use transform="matrix(0.05,0,0,0.05,10.950000000000001,0)" xlink:href="#az"/></g><path fill="#333" d="M151-220L108 0H75l42-220H32l6-28h203l-5 28h-85" id="aA"/><path fill="#333" d="M50-231l6-30h32l-6 30H50zM6 0l37-190h31L37 0H6" id="aB"/><path fill="#333" d="M51-54c-9 22 5 41 31 30L79-1C43 14 10-4 19-52l22-115H19l5-23h22l19-43h21l-9 43h35l-4 23H73" id="aC"/><path fill="#333" d="M6 0l50-261h32L37 0H6" id="aD"/><g id="l"><use transform="matrix(0.05,0,0,0.05,0,0)" xlink:href="#aA"/><use transform="matrix(0.05,0,0,0.05,10.8,0)" xlink:href="#aB"/><use transform="matrix(0.05,0,0,0.05,14.75,0)" xlink:href="#aC"/><use transform="matrix(0.05,0,0,0.05,19.75,0)" xlink:href="#aD"/><use transform="matrix(0.05,0,0,0.05,23.7,0)" xlink:href="#aw"/></g><path fill="#333" d="M124 0L87-78 21 0h-35l86-98-46-92h33l34 74 61-74h37l-83 92 50 98h-34" id="aE"/><path fill="#333" d="M133-28C103 26-5 8 13-77c13-62 24-115 90-117 29-1 46 15 56 35l19-102h32L160 0h-30zM45-64c-2 27 10 43 35 43 54-1 69-50 69-103 0-29-15-46-42-46-53-1-58 58-62 106" id="aF"/><g id="m"><use transform="matrix(0.05,0,0,0.05,0,0)" xlink:href="#aA"/><use transform="matrix(0.05,0,0,0.05,9.3,0)" xlink:href="#aw"/><use transform="matrix(0.05,0,0,0.05,19.3,0)" xlink:href="#aE"/><use transform="matrix(0.05,0,0,0.05,28.3,0)" xlink:href="#aC"/><use transform="matrix(0.05,0,0,0.05,33.3,0)" xlink:href="#ay"/><use transform="matrix(0.05,0,0,0.05,44.25,0)" xlink:href="#aB"/><use transform="matrix(0.05,0,0,0.05,48.2,0)" xlink:href="#aw"/><use transform="matrix(0.05,0,0,0.05,58.2,0)" xlink:href="#aD"/><use transform="matrix(0.05,0,0,0.05,62.150000000000006,0)" xlink:href="#aF"/></g><path fill="#333" d="M219-77C219 17 104-2 11 0l48-248c73 2 169-15 169 57 0 38-24 54-60 60 29 5 51 21 51 54zm-26-111c0-44-62-31-105-33l-16 79c55 0 121 9 121-46zm-7 110c-1-49-69-36-119-38L50-27c61-1 137 12 136-51" id="aG"/><path fill="#333" d="M30-147c31-64 166-65 159 27C183-49 158 1 86 4 9 8 1-88 30-147zM88-20c53 0 68-48 68-100 0-31-11-51-44-50-52 1-68 46-68 97 0 32 13 53 44 53" id="aH"/><path fill="#333" d="M198-190L69 30C53 58 25 83-20 72c4-11-1-27 19-22 33-1 43-29 59-52L20-190h32L79-34l84-156h35" id="aI"/><g id="n"><use transform="matrix(0.05,0,0,0.05,0,0)" xlink:href="#aG"/><use transform="matrix(0.05,0,0,0.05,12,0)" xlink:href="#aH"/><use transform="matrix(0.05,0,0,0.05,22,0)" xlink:href="#aF"/><use transform="matrix(0.05,0,0,0.05,32,0)" xlink:href="#aI"/></g><path fill="#333" d="M165-48c-4 18 1 34 23 27l-3 20c-29 8-62 0-52-35h-2C116-14 99 4 63 4 30 4 8-16 8-49c0-68 71-67 138-67 10-26 0-56-31-54-26 1-42 9-47 31l-32-5c8-67 160-71 144 15-5 28-9 54-15 81zM42-50c3 52 80 24 89-6 7-12 7-24 11-38-47 1-103-4-100 44" id="aJ"/><path fill="#333" d="M103-194c29 0 47 14 56 36 2-11 5-23 8-32h30L160-5C157 61 82 97 21 62 9 55 4 45 1 30l28-7c7 42 83 31 92-3 4-16 9-38 13-55-13 20-29 36-62 36-40 0-60-25-60-64 0-71 23-131 91-131zm4 24c-53 0-58 54-61 104-2 27 10 44 36 44 49 0 65-50 67-102 1-29-15-46-42-46" id="aK"/><g id="o"><use transform="matrix(0.05,0,0,0.05,0,0)" xlink:href="#aA"/><use transform="matrix(0.05,0,0,0.05,9.3,0)" xlink:href="#aJ"/><use transform="matrix(0.05,0,0,0.05,19.3,0)" xlink:href="#aK"/><use transform="matrix(0.05,0,0,0.05,29.3,0)" xlink:href="#av"/></g><path fill="#333" d="M222 0l43-216c-8 16-17 34-26 49L143 0h-22L81-216 41 0H11l48-248h42l38 208 116-208h45L252 0h-30" id="aL"/><path fill="#333" d="M67-158c22-48 132-52 116 29L158 0h-32l25-140c3-38-53-32-70-12C52-117 51-52 38 0H6l36-190h30" id="aM"/><path fill="#333" d="M18-82l6-28h88l-6 28H18" id="aN"/><g id="p"><use transform="matrix(0.05,0,0,0.05,0,0)" xlink:href="#aL"/><use transform="matrix(0.05,0,0,0.05,14.950000000000001,0)" xlink:href="#aJ"/><use transform="matrix(0.05,0,0,0.05,24.950000000000003,0)" xlink:href="#aM"/><use transform="matrix(0.05,0,0,0.05,34.95,0)" xlink:href="#aI"/><use transform="matrix(0.05,0,0,0.05,43.95,0)" xlink:href="#aN"/><use transform="matrix(0.05,0,0,0.05,49.900000000000006,0)" xlink:href="#aA"/><use transform="matrix(0.05,0,0,0.05,59.20000000000002,0)" xlink:href="#aH"/><use transform="matrix(0.05,0,0,0.05,69.20000000000002,0)" xlink:href="#aN"/><use transform="matrix(0.05,0,0,0.05,75.15000000000002,0)" xlink:href="#aL"/><use transform="matrix(0.05,0,0,0.05,90.10000000000002,0)" xlink:href="#aJ"/><use transform="matrix(0.05,0,0,0.05,100.10000000000002,0)" xlink:href="#aM"/><use transform="matrix(0.05,0,0,0.05,110.10000000000002,0)" xlink:href="#aI"/></g><path fill="#333" d="M161-211c-63 0-91 46-91 110 0 39 17 65 58 64 38-1 60-20 74-45l40 20C220-23 184 0 125 4 9 13-10-144 57-208c33-50 166-62 196-1 4 8 9 18 11 27l-48 12c-6-24-25-41-55-41" id="aO"/><path fill="#333" d="M255-194c90 0 29 129 24 194h-49l25-136c-7-39-53-14-60 9-12 38-18 85-28 127h-49l25-136c2-29-39-23-50-7C69-108 68-47 56 0H6l36-190h48c-1 10-6 24-4 32 12-20 27-36 57-36s46 15 50 41c14-21 29-41 62-41" id="aP"/><path fill="#333" d="M76-105c-23 59 45 89 88 55 12-10 18-24 22-45l30-153h51C238-143 259 4 118 4 48 4 11-39 25-112l26-136h52" id="aQ"/><path fill="#333" d="M84-151c13-25 34-51 72-40l-8 41C67-170 71-64 56 0H6l36-190h47" id="aR"/><g id="q"><use transform="matrix(0.05,0,0,0.05,0,0)" xlink:href="#aO"/><use transform="matrix(0.05,0,0,0.05,12.950000000000001,0)" xlink:href="#an"/><use transform="matrix(0.05,0,0,0.05,23.900000000000002,0)" xlink:href="#ap"/><use transform="matrix(0.05,0,0,0.05,33.900000000000006,0)" xlink:href="#aq"/><use transform="matrix(0.05,0,0,0.05,39.85000000000001,0)" xlink:href="#as"/><use transform="matrix(0.05,0,0,0.05,50.80000000000001,0)" xlink:href="#aP"/><use transform="matrix(0.05,0,0,0.05,66.80000000000001,0)" xlink:href="#aQ"/><use transform="matrix(0.05,0,0,0.05,79.75000000000001,0)" xlink:href="#ap"/><use transform="matrix(0.05,0,0,0.05,89.75000000000001,0)" xlink:href="#ao"/><use transform="matrix(0.05,0,0,0.05,99.75000000000001,0)" xlink:href="#aR"/></g><path fill="#333" d="M11 0l48-248h184l-5 28H87l-15 79h140l-5 27H67L50-27h158l-5 27H11" id="aS"/><path fill="#333" d="M248-111c6-24 9-61-24-58-72 9-57 108-77 169h-31l26-142c3-37-50-30-64-10C52-115 50-51 37 0H6l36-190h30c-1 10-6 24-4 32 13-43 101-52 105 5 13-22 29-41 61-41 90 0 28 129 23 194h-31" id="aT"/><g id="r"><use transform="matrix(0.05,0,0,0.05,0,0)" xlink:href="#aS"/><use transform="matrix(0.05,0,0,0.05,12,0)" xlink:href="#aT"/><use transform="matrix(0.05,0,0,0.05,26.950000000000003,0)" xlink:href="#aJ"/><use transform="matrix(0.05,0,0,0.05,36.95,0)" xlink:href="#aB"/><use transform="matrix(0.05,0,0,0.05,40.900000000000006,0)" xlink:href="#aD"/></g><g id="s"><use transform="matrix(0.05,0,0,0.05,0,0)" xlink:href="#aS"/><use transform="matrix(0.05,0,0,0.05,12,0)" xlink:href="#aT"/><use transform="matrix(0.05,0,0,0.05,26.950000000000003,0)" xlink:href="#aJ"/><use transform="matrix(0.05,0,0,0.05,36.95,0)" xlink:href="#aB"/><use transform="matrix(0.05,0,0,0.05,40.900000000000006,0)" xlink:href="#aD"/><use transform="matrix(0.05,0,0,0.05,44.85000000000001,0)" xlink:href="#ay"/><use transform="matrix(0.05,0,0,0.05,55.80000000000001,0)" xlink:href="#aB"/><use transform="matrix(0.05,0,0,0.05,59.750000000000014,0)" xlink:href="#aw"/><use transform="matrix(0.05,0,0,0.05,69.75000000000001,0)" xlink:href="#aD"/><use transform="matrix(0.05,0,0,0.05,73.70000000000002,0)" xlink:href="#aF"/></g><path fill="#333" d="M187 0l-14-72H61L19 0h-37l149-248h38L221 0h-34zm-19-99l-22-123L76-99h92" id="aU"/><path fill="#333" d="M188 0h-37l-8-164L71 0H34L18-190h31l8 164 75-164h34l8 164 74-164h31" id="aV"/><g id="t"><use transform="matrix(0.05,0,0,0.05,0,0)" xlink:href="#aU"/><use transform="matrix(0.05,0,0,0.05,12,0)" xlink:href="#aM"/><use transform="matrix(0.05,0,0,0.05,22,0)" xlink:href="#av"/><use transform="matrix(0.05,0,0,0.05,31,0)" xlink:href="#aV"/><use transform="matrix(0.05,0,0,0.05,43.95,0)" xlink:href="#aw"/><use transform="matrix(0.05,0,0,0.05,53.95,0)" xlink:href="#ax"/><use transform="matrix(0.05,0,0,0.05,59.900000000000006,0)" xlink:href="#av"/></g><path fill="#333" d="M24-61C-1-165 59-251 163-251c67 1 105 36 105 101 0 88-46 140-124 152 2 33 24 47 60 39l-3 23c-50 15-89-11-89-61-46-3-79-26-88-64zm210-73c6-55-18-91-72-90-77 1-111 51-111 125 0 49 24 75 73 75 72 0 103-45 110-110" id="aW"/><path fill="#333" d="M67 3c-93-2-31-127-26-193h32L48-50c-3 39 53 32 70 12 30-34 30-101 43-152h32L157 0h-30c1-10 6-24 4-33-14 20-29 37-64 36" id="aX"/><g id="u"><use transform="matrix(0.05,0,0,0.05,0,0)" xlink:href="#aW"/><use transform="matrix(0.05,0,0,0.05,14,0)" xlink:href="#aX"/><use transform="matrix(0.05,0,0,0.05,24,0)" xlink:href="#aw"/><use transform="matrix(0.05,0,0,0.05,34,0)" xlink:href="#av"/><use transform="matrix(0.05,0,0,0.05,43,0)" xlink:href="#aC"/><use transform="matrix(0.05,0,0,0.05,48,0)" xlink:href="#aB"/><use transform="matrix(0.05,0,0,0.05,51.95,0)" xlink:href="#aH"/><use transform="matrix(0.05,0,0,0.05,61.95,0)" xlink:href="#aM"/></g><path fill="#333" d="M241-173c-1 82-78 91-166 86L58 0H6l48-248c87 0 188-12 187 75zm-53 2c0-43-48-36-90-36l-15 80c50 0 105 7 105-44" id="aY"/><path fill="#333" d="M93-157L62 0H13l31-157H16l6-33h28c2-54 40-81 100-68l-6 32c-29-8-44 9-45 36h38l-7 33H93" id="aZ"/><path fill="#333" d="M6 0l51-261h49L55 0H6" id="ba"/><g id="v"><use transform="matrix(0.05,0,0,0.05,0,0)" xlink:href="#aY"/><use transform="matrix(0.05,0,0,0.05,12,0)" xlink:href="#aR"/><use transform="matrix(0.05,0,0,0.05,19,0)" xlink:href="#as"/><use transform="matrix(0.05,0,0,0.05,29.950000000000003,0)" xlink:href="#aZ"/><use transform="matrix(0.05,0,0,0.05,35.900000000000006,0)" xlink:href="#ar"/><use transform="matrix(0.05,0,0,0.05,40.900000000000006,0)" xlink:href="#ba"/><use transform="matrix(0.05,0,0,0.05,45.900000000000006,0)" xlink:href="#ao"/></g><path fill="#333" d="M89 0H52L20-190h33L74-25l89-165h34" id="bb"/><g id="w"><use transform="matrix(0.05,0,0,0.05,0,0)" xlink:href="#ay"/><use transform="matrix(0.05,0,0,0.05,10.950000000000001,0)" xlink:href="#aJ"/><use transform="matrix(0.05,0,0,0.05,20.950000000000003,0)" xlink:href="#bb"/><use transform="matrix(0.05,0,0,0.05,29.950000000000003,0)" xlink:href="#aH"/><use transform="matrix(0.05,0,0,0.05,39.95,0)" xlink:href="#aX"/><use transform="matrix(0.05,0,0,0.05,49.95,0)" xlink:href="#ax"/><use transform="matrix(0.05,0,0,0.05,55.900000000000006,0)" xlink:href="#aB"/><use transform="matrix(0.05,0,0,0.05,59.85,0)" xlink:href="#aC"/><use transform="matrix(0.05,0,0,0.05,64.85000000000001,0)" xlink:href="#aw"/><use transform="matrix(0.05,0,0,0.05,74.85000000000001,0)" xlink:href="#aA"/><use transform="matrix(0.05,0,0,0.05,84.15,0)" xlink:href="#aJ"/><use transform="matrix(0.05,0,0,0.05,94.15,0)" xlink:href="#aK"/><use transform="matrix(0.05,0,0,0.05,104.15,0)" xlink:href="#av"/></g><path fill="#333" d="M67-158c15-20 31-36 64-36 94 0 33 127 27 194h-32l25-140c3-38-53-32-70-12C52-117 51-51 37 0H6l51-261h31" id="bc"/><g id="x"><use transform="matrix(0.05,0,0,0.05,0,0)" xlink:href="#aG"/><use transform="matrix(0.05,0,0,0.05,12,0)" xlink:href="#aB"/><use transform="matrix(0.05,0,0,0.05,15.949999999999998,0)" xlink:href="#ax"/><use transform="matrix(0.05,0,0,0.05,21.9,0)" xlink:href="#aC"/><use transform="matrix(0.05,0,0,0.05,26.899999999999995,0)" xlink:href="#bc"/><use transform="matrix(0.05,0,0,0.05,36.9,0)" xlink:href="#aF"/><use transform="matrix(0.05,0,0,0.05,46.9,0)" xlink:href="#aJ"/><use transform="matrix(0.05,0,0,0.05,56.900000000000006,0)" xlink:href="#aI"/></g><path fill="#333" d="M248-139C247-14 144 9 11 0l48-248c105-6 190 8 189 109zm-34 0c1-70-52-87-126-82L50-27c98 7 163-21 164-112" id="bd"/><g id="y"><use transform="matrix(0.05,0,0,0.05,0,0)" xlink:href="#bd"/><use transform="matrix(0.05,0,0,0.05,12.950000000000001,0)" xlink:href="#aJ"/><use transform="matrix(0.05,0,0,0.05,22.950000000000003,0)" xlink:href="#aC"/><use transform="matrix(0.05,0,0,0.05,27.950000000000003,0)" xlink:href="#aw"/><use transform="matrix(0.05,0,0,0.05,37.95,0)" xlink:href="#aA"/><use transform="matrix(0.05,0,0,0.05,48.75000000000001,0)" xlink:href="#aB"/><use transform="matrix(0.05,0,0,0.05,52.70000000000002,0)" xlink:href="#aT"/><use transform="matrix(0.05,0,0,0.05,67.65,0)" xlink:href="#aw"/><use transform="matrix(0.05,0,0,0.05,77.65,0)" xlink:href="#ay"/><use transform="matrix(0.05,0,0,0.05,88.60000000000001,0)" xlink:href="#aB"/><use transform="matrix(0.05,0,0,0.05,92.55000000000001,0)" xlink:href="#aw"/><use transform="matrix(0.05,0,0,0.05,102.55000000000001,0)" xlink:href="#aD"/><use transform="matrix(0.05,0,0,0.05,106.5,0)" xlink:href="#aF"/></g><g id="z"><use transform="matrix(0.05,0,0,0.05,0,0)" xlink:href="#au"/><use transform="matrix(0.05,0,0,0.05,12.950000000000001,0)" xlink:href="#av"/><use transform="matrix(0.05,0,0,0.05,21.950000000000003,0)" xlink:href="#aw"/><use transform="matrix(0.05,0,0,0.05,31.950000000000003,0)" xlink:href="#ax"/></g><path fill="#333" d="M20-101c0-91 52-143 145-150 126-9 127 168 53 223-23 17-55 32-93 32C57 4 20-33 20-101zm216-33c5-57-18-91-73-90-77 1-110 51-110 125 0 49 23 75 73 75 72-1 104-45 110-110" id="be"/><g id="A"><use transform="matrix(0.05,0,0,0.05,0,0)" xlink:href="#be"/><use transform="matrix(0.05,0,0,0.05,14,0)" xlink:href="#aM"/><use transform="matrix(0.05,0,0,0.05,24,0)" xlink:href="#aw"/><use transform="matrix(0.05,0,0,0.05,34,0)" xlink:href="#aN"/><use transform="matrix(0.05,0,0,0.05,39.95,0)" xlink:href="#aC"/><use transform="matrix(0.05,0,0,0.05,44.95,0)" xlink:href="#aH"/><use transform="matrix(0.05,0,0,0.05,54.95,0)" xlink:href="#aN"/><use transform="matrix(0.05,0,0,0.05,60.900000000000006,0)" xlink:href="#be"/><use transform="matrix(0.05,0,0,0.05,74.9,0)" xlink:href="#aM"/><use transform="matrix(0.05,0,0,0.05,84.9,0)" xlink:href="#aw"/></g><path fill="#333" d="M157-208L117 0H65l40-208H25l8-40h212l-8 40h-80" id="bf"/><path fill="#333" d="M166-52c-4 17 5 29 24 23l-3 27c-30 11-74 1-67-34C105-15 91 4 56 4 23 4 3-15 2-49c0-64 63-67 128-67 10-22 3-53-29-45-13 3-22 10-25 24l-46-5c5-64 156-77 153 0-1 33-11 60-17 90zM97-88c-44-9-64 57-19 57 31 0 42-28 47-57H97" id="bg"/><path fill="#333" d="M45-171c29-32 103-29 114 14 2-11 5-23 8-33h47L176-2c-3 70-92 96-155 64C9 56 1 42-1 25l50-5c2 28 48 27 63 11 13-13 20-45 21-66-13 20-30 35-62 36-87 3-60-134-26-172zM94-35c41-3 55-43 55-86 0-24-12-39-35-39-43 0-51 48-51 90 0 22 9 37 31 35" id="bh"/><g id="B"><use transform="matrix(0.05,0,0,0.05,0,0)" xlink:href="#bf"/><use transform="matrix(0.05,0,0,0.05,10.3,0)" xlink:href="#bg"/><use transform="matrix(0.05,0,0,0.05,20.3,0)" xlink:href="#bh"/></g><path fill="#333" d="M173 0L80-213 41 0H11l48-248h37l94 214 40-214h30L212 0h-39" id="bi"/><g id="C"><use transform="matrix(0.05,0,0,0.05,0,0)" xlink:href="#bi"/><use transform="matrix(0.05,0,0,0.05,12.950000000000001,0)" xlink:href="#aJ"/><use transform="matrix(0.05,0,0,0.05,22.950000000000003,0)" xlink:href="#aT"/><use transform="matrix(0.05,0,0,0.05,37.900000000000006,0)" xlink:href="#aw"/></g><path fill="#333" d="M125-24c46 0 70-25 89-51l25 16C214-24 183 4 123 4 8 4-5-146 60-208c32-50 158-61 191-5 5 7 9 14 11 22l-32 10c-9-28-33-43-69-43-74 0-108 51-108 125 0 46 24 75 72 75" id="bj"/><g id="D"><use transform="matrix(0.05,0,0,0.05,0,0)" xlink:href="#bj"/><use transform="matrix(0.05,0,0,0.05,12.950000000000001,0)" xlink:href="#bc"/><use transform="matrix(0.05,0,0,0.05,22.950000000000003,0)" xlink:href="#aJ"/><use transform="matrix(0.05,0,0,0.05,32.95,0)" xlink:href="#ax"/><use transform="matrix(0.05,0,0,0.05,38.900000000000006,0)" xlink:href="#ay"/><use transform="matrix(0.05,0,0,0.05,49.85000000000001,0)" xlink:href="#aB"/><use transform="matrix(0.05,0,0,0.05,53.80000000000001,0)" xlink:href="#aw"/><use transform="matrix(0.05,0,0,0.05,63.80000000000001,0)" xlink:href="#aD"/><use transform="matrix(0.05,0,0,0.05,67.75000000000001,0)" xlink:href="#aF"/></g><path fill="#333" d="M119 0H84L31-248h34l41 218 126-218h36" id="bk"/><g id="E"><use transform="matrix(0.05,0,0,0.05,0,0)" xlink:href="#bk"/><use transform="matrix(0.05,0,0,0.05,11.35,0)" xlink:href="#aH"/><use transform="matrix(0.05,0,0,0.05,21.35,0)" xlink:href="#aC"/><use transform="matrix(0.05,0,0,0.05,26.35,0)" xlink:href="#aw"/><use transform="matrix(0.05,0,0,0.05,36.35,0)" xlink:href="#av"/></g><g id="F"><use transform="matrix(0.05,0,0,0.05,0,0)" xlink:href="#aU"/><use transform="matrix(0.05,0,0,0.05,12,0)" xlink:href="#aM"/><use transform="matrix(0.05,0,0,0.05,22,0)" xlink:href="#av"/><use transform="matrix(0.05,0,0,0.05,31,0)" xlink:href="#aV"/><use transform="matrix(0.05,0,0,0.05,43.95,0)" xlink:href="#aw"/><use transform="matrix(0.05,0,0,0.05,53.95,0)" xlink:href="#ax"/></g><g id="G"><use transform="matrix(0.05,0,0,0.05,0,0)" xlink:href="#bj"/><use transform="matrix(0.05,0,0,0.05,12.950000000000001,0)" xlink:href="#aH"/><use transform="matrix(0.05,0,0,0.05,22.950000000000003,0)" xlink:href="#aT"/><use transform="matrix(0.05,0,0,0.05,37.900000000000006,0)" xlink:href="#aT"/><use transform="matrix(0.05,0,0,0.05,52.85,0)" xlink:href="#aw"/><use transform="matrix(0.05,0,0,0.05,62.85,0)" xlink:href="#aM"/><use transform="matrix(0.05,0,0,0.05,72.85000000000001,0)" xlink:href="#aC"/><use transform="matrix(0.05,0,0,0.05,77.85000000000001,0)" xlink:href="#av"/></g><g id="H"><use transform="matrix(0.05,0,0,0.05,0,0)" xlink:href="#aO"/><use transform="matrix(0.05,0,0,0.05,12.950000000000001,0)" xlink:href="#as"/><use transform="matrix(0.05,0,0,0.05,23.900000000000002,0)" xlink:href="#aP"/><use transform="matrix(0.05,0,0,0.05,39.900000000000006,0)" xlink:href="#aP"/><use transform="matrix(0.05,0,0,0.05,55.900000000000006,0)" xlink:href="#ao"/><use transform="matrix(0.05,0,0,0.05,65.9,0)" xlink:href="#at"/><use transform="matrix(0.05,0,0,0.05,76.85000000000001,0)" xlink:href="#aq"/><use transform="matrix(0.05,0,0,0.05,82.80000000000001,0)" xlink:href="#ap"/></g></defs></g></svg>